# xmcd
#
# Track frame offsets: 
#        183
#        14053
#        29618
#        43358
#        55618
#        70263
#        84373
#        97610
#        111573
#        127170
#        142453
#        157315
#        171413
#        183893
#        199020
#        214783
#        229880
#        244275
#        260440
#        275078
#        287760
#        300225
#
# Disc length: 4166 seconds
#
# Revision: 1
# Processed by: cddbd v1.5.2PL0 Copyright (c) Steve Scherf et al.
# Submitted via: ExactAudioCopy v1.3
#
DISCID=58104416
DTITLE=Al Bowlly - Al Bowlly And The Great British Bands
DYEAR=1997
DGENRE=Dance Hall
TTITLE0=Al Bowlly, Carrol Gibbons and the Savoy Hotel Orpheans 1932 - 
TTITLE0=Actions Speak Louder Than Words
TTITLE1=Al Bowlly, Roy Fox and His Band at the Monseigneur Restaurant, L
TTITLE1=ondon 1932 - To Be Worthy Of You
TTITLE2=Al Bowlly, Lew Stone and His Band 1933 - Thanks
TTITLE3=Al Bowlly, Arthur Lally and His Orchestra 1932 - Is I In Love, I
TTITLE3=Is
TTITLE4=Al Bowlly, Ray Noble and His New Mayfair Orchestra 1932 - Lookin
TTITLE4=g On The Bright Side Of Life
TTITLE5=Al Bowlly, Lew Stone and His Band 1934 - Night On The Desert
TTITLE6=Al Bowlly, Roy Fox and His Band at the Monseigneur Restaurant, L
TTITLE6=ondon 1931 - Hurt
TTITLE7=Al Bowlly, Carrol Gibbons and the Savoy Hotel Orpheans 1931 - 
TTITLE7=Linda
TTITLE8=Al Bowlly, Jock McDermott and His Band 1932 - Dinah
TTITLE9=Al Bowlly, Geraldo and His Orchestra 1938 - When Mother Nature S
TTITLE9=ings Her Lullaby
TTITLE10=Al Bowlly, Ray Noble and His New Mayfair Orchestra 1932 - Good 
TTITLE10=Evening
TTITLE11=Al Bowlly, Reginald Williams and His Futurists 1939 - What Do Y
TTITLE11=ou Know About Love
TTITLE12=Al Bowlly, Oscar Rabin and His Romany Band 1938 - Proud Of You
TTITLE13=Al Bowlly, Geraldo and His Orchestra 1938 - Heart And Soul
TTITLE14=Al Bowlly, Geraldo and His Orchestra 1938 - Is That The Way To 
TTITLE14=Treat A Sweetheart
TTITLE15=Al Bowlly, Ronnie Munro and His Orchestra 1937 - Smile When You
TTITLE15=Say Goodbye
TTITLE16=Al Bowlly, Reginald Williams and His Futurists 1939 - Small Tow
TTITLE16=n
TTITLE17=Al Bowlly, Geraldo and His Orchestra 1938 - My Own
TTITLE18=Al Bowlly, Ronnie Munro and His Orchestra 1937 - Home Town
TTITLE19=Al Bowlly, Maurice Winnick and His Sweet Music 1937 - Bei Mir B
TTITLE19=ist Du Schoen
TTITLE20=Al Bowlly, Lew Stone and His Band 1938 - The Girl In The Alice 
TTITLE20=Blue Gown
TTITLE21=Al Bowlly, Maurice Winnick and His Orchestra 1940 - My Capri Se
TTITLE21=renade
EXTD=
EXTT0=
EXTT1=
EXTT2=
EXTT3=
EXTT4=
EXTT5=
EXTT6=
EXTT7=
EXTT8=
EXTT9=
EXTT10=
EXTT11=
EXTT12=
EXTT13=
EXTT14=
EXTT15=
EXTT16=
EXTT17=
EXTT18=
EXTT19=
EXTT20=
EXTT21=
PLAYORDER=
